<?xml version="1.0" encoding="UTF-8" standalone="no"?>
<!-- Created with Inkscape (http://www.inkscape.org/) -->

<svg
   width="93.949043mm"
   height="67.502861mm"
   viewBox="0 0 93.949043 67.502861"
   version="1.1"
   id="svg1"
   xmlns:xlink="http://www.w3.org/1999/xlink"
   xmlns="http://www.w3.org/2000/svg"
   xmlns:svg="http://www.w3.org/2000/svg">
  <defs
     id="defs1">
    <linearGradient
       id="swatch100">
      <stop
         style="stop-color:#953cc3;stop-opacity:1;"
         offset="0"
         id="stop100" />
      <stop
         style="stop-color:#c33c3c;stop-opacity:1;"
         offset="0.99999982"
         id="stop102" />
      <stop
         style="stop-color:#953cc3;stop-opacity:1;"
         offset="1"
         id="stop101" />
    </linearGradient>
    <linearGradient
       xlink:href="#swatch100"
       id="linearGradient101"
       x1="47.142632"
       y1="140.59805"
       x2="114.64593"
       y2="140.59805"
       gradientUnits="userSpaceOnUse"
       gradientTransform="rotate(-90,96.898099,132.49619)" />
  </defs>
  <g
     id="layer1"
     transform="translate(-72.119631,-114.74855)">
    <path
       id="rect82"
       style="fill:url(#linearGradient101);fill-rule:nonzero;stroke-width:0.22;stroke-dasharray:none;paint-order:stroke fill markers"
       d="m 78.734729,114.74855 c -3.664686,0 -6.6151,2.9499 -6.6151,6.61458 v 54.27369 c 0,3.6647 2.950414,6.61459 6.6151,6.61459 h 52.530641 c 3.6647,0 6.6151,-2.94989 6.6151,-6.61459 v -7.98969 h -4.53409 v 5.13457 c 0,2.25183 -1.81304,4.06487 -4.06487,4.06487 H 80.71807 c -2.251827,0 -4.064351,-1.81304 -4.064351,-4.06487 v -48.56344 c 0,-2.25183 1.812524,-4.06435 4.064351,-4.06435 h 48.56344 c 2.25183,0 4.06487,1.81252 4.06487,4.06435 v 30.51286 h 4.53409 v -33.36799 c 0,-3.66468 -2.9504,-6.61458 -6.6151,-6.61458 z" />
    <path
       d="m 93.18612,136.7709 -2.724609,0.91155 q -0.550932,-1.62275 -2.333948,-1.62275 -1.903219,0 -1.903219,1.23209 0,0.49083 0.350593,0.8314 0.36061,0.34058 1.612728,0.591 2.093541,0.42071 3.065184,0.85144 0.971644,0.43073 1.632762,1.39236 0.671135,0.95161 0.671135,2.13361 0,1.85313 -1.432422,3.20542 -1.422406,1.35229 -4.227151,1.35229 -2.103558,0 -3.586065,-0.95161 -1.472491,-0.96163 -1.943287,-2.84482 l 2.965015,-0.67113 q 0.500847,1.91323 2.78471,1.91323 1.101864,0 1.642779,-0.42071 0.540915,-0.43073 0.540915,-1.02172 0,-0.60102 -0.49083,-0.93158 -0.490831,-0.33056 -1.893203,-0.62105 -2.614422,-0.54092 -3.726303,-1.47249 -1.11188,-0.94159 -1.11188,-2.74464 0,-1.82309 1.322236,-3.07521 1.332254,-1.25211 3.6061,-1.25211 4.026811,0 5.17876,3.21543 z"
       id="text1245"
       style="font-size:20.5147px;font-family:'Franklin Gothic Demi';-inkscape-font-specification:'Franklin Gothic Demi';fill:#c500ee;stroke-width:1.8544;paint-order:markers fill stroke"
       transform="scale(0.99292837,1.007122)"
       aria-label="S" />
    <path
       d="m 95.650291,133.76582 h 4.177065 q 2.554324,0 3.806434,0.7112 1.25212,0.70119 2.2438,2.23378 0.99168,1.52258 0.99168,3.85653 0,2.93496 -1.73293,4.9083 -1.73294,1.96332 -4.77809,1.96332 h -4.707959 z m 3.14532,2.51425 v 8.58453 h 1.322239 q 1.75296,0 2.6044,-1.30221 0.85144,-1.31222 0.85144,-3.0752 0,-1.2421 -0.49083,-2.29388 -0.48081,-1.0618 -1.20203,-1.48251 -0.72122,-0.43073 -1.73293,-0.43073 z"
       id="text1244"
       style="font-size:20.5147px;font-family:'Franklin Gothic Demi';-inkscape-font-specification:'Franklin Gothic Demi';fill:#c500ee;stroke-width:1.8544;paint-order:markers fill stroke"
       transform="scale(0.99292837,1.007122)"
       aria-label="D" />
    <path
       d="m 112.14819,133.76582 v 13.67313 h -3.1954 v -13.67313 z"
       id="text1243"
       style="font-size:20.5147px;font-family:'Franklin Gothic Demi';-inkscape-font-specification:'Franklin Gothic Demi';fill:#c500ee;stroke-width:1.8544;paint-order:markers fill stroke"
       transform="scale(0.99292837,1.007122)"
       aria-label="I" />
    <path
       d="m 92.394781,165.201 h -2.985049 v -5.6796 q 0,-1.03175 -0.08014,-1.41239 -0.08013,-0.38065 -0.39066,-0.64109 -0.310526,-0.27045 -0.781322,-0.27045 -1.57266,0 -1.57266,2.32393 v 5.6796 h -2.985049 v -10.11711 h 2.774693 v 1.7129 q 0.691169,-1.22207 1.362304,-1.57266 0.671136,-0.35059 1.452457,-0.35059 1.44244,0 2.323931,0.78132 0.881491,0.7713 0.881491,3.04515 z"
       id="text1242"
       style="font-size:20.5147px;font-family:'Franklin Gothic Demi';-inkscape-font-specification:'Franklin Gothic Demi';fill:#c500ee;stroke-width:1.8544;paint-order:markers fill stroke"
       transform="scale(0.99292837,1.007122)"
       aria-label="n" />
    <path
       d="m 102.43175,157.52803 -2.17367,0.58098 q -0.380646,-1.37232 -1.97334,-1.37232 -1.502541,0 -1.502541,0.91154 0,0.36061 0.270457,0.58098 0.280475,0.21036 1.44244,0.36061 1.732934,0.23039 2.564334,0.5309 0.83141,0.30051 1.31222,1.01171 0.49083,0.7112 0.49083,1.75297 0,1.56264 -1.19201,2.5443 -1.182,0.98166 -3.315611,0.98166 -3.86654,0 -4.617811,-2.99507 l 2.514253,-0.37062 q 0.310525,1.3623 2.243795,1.3623 0.741254,0 1.252118,-0.26044 0.510866,-0.27046 0.510866,-0.72122 0,-0.70119 -1.131917,-0.83141 -3.065184,-0.38064 -4.036828,-1.17198 -0.961626,-0.80135 -0.961626,-2.22376 0,-1.44244 1.121897,-2.38403 1.121898,-0.94159 3.145321,-0.94159 1.602711,0 2.564333,0.63106 0.96163,0.63107 1.47249,2.02343 z"
       id="text1241"
       style="font-size:20.5147px;font-family:'Franklin Gothic Demi';-inkscape-font-specification:'Franklin Gothic Demi';fill:#c500ee;stroke-width:1.8544;paint-order:markers fill stroke"
       transform="scale(0.99292837,1.007122)"
       aria-label="s" />
    <path
       d="m 108.00118,157.40782 v 4.27724 q 0,0.80135 0.24041,1.07181 0.2404,0.27046 1.13191,0.27046 0.4107,0 0.95161,-0.0401 v 2.21374 q -1.3022,0.22038 -1.87317,0.22038 -1.86315,0 -2.64447,-0.71121 -0.78132,-0.72122 -0.78132,-2.59438 v -4.70797 h -1.60271 v -2.32393 h 1.773 l 0.2404,-2.98505 2.56434,-0.20034 v 3.18539 h 2.1837 v 2.32393 z"
       id="text1240"
       style="font-size:20.5147px;font-family:'Franklin Gothic Demi';-inkscape-font-specification:'Franklin Gothic Demi';fill:#c500ee;stroke-width:1.8544;paint-order:markers fill stroke"
       transform="scale(0.99292837,1.007122)"
       aria-label="t" />
    <path
       d="m 120.86294,165.201 h -2.89489 q -0.14024,-0.60101 -0.14024,-1.58267 -0.76129,1.08183 -1.52258,1.44244 -0.75127,0.35059 -1.71289,0.35059 -1.42241,0 -2.3039,-0.7713 -0.87148,-0.77131 -0.87148,-2.07351 0,-0.95161 0.51087,-1.75297 0.51086,-0.80135 1.64278,-1.25212 1.13191,-0.46077 4.12698,-0.68115 v -0.58098 q 0,-1.47249 -1.47249,-1.47249 -1.57266,0 -1.75297,1.47249 l -2.75466,-0.26044 q 0.27046,-1.72291 1.63276,-2.44413 1.36231,-0.72122 3.08522,-0.72122 1.03175,0 1.94329,0.2404 0.91154,0.24041 1.42241,0.72122 0.51086,0.48082 0.69116,1.02173 0.18031,0.5309 0.18031,1.86315 v 4.58776 q 0,1.32224 0.19032,1.8932 z m -3.16535,-4.8482 q -3.13531,0.31053 -3.13531,1.89321 0,0.53089 0.33056,0.92155 0.33056,0.38065 0.9416,0.38065 0.79133,0 1.32223,-0.6511 0.54092,-0.66112 0.54092,-1.62275 z"
       id="text1239"
       style="font-size:20.5147px;font-family:'Franklin Gothic Demi';-inkscape-font-specification:'Franklin Gothic Demi';fill:#c500ee;stroke-width:1.8544;paint-order:markers fill stroke"
       transform="scale(0.99292837,1.007122)"
       aria-label="a" />
    <path
       d="m 133.33403,155.31428 q -0.4708,-0.10017 -0.79134,-0.10017 -0.99168,0 -1.16196,0.88149 0.81137,0.85144 0.81137,1.92326 0,1.43242 -1.20203,2.28386 -1.19202,0.85144 -3.44583,0.85144 -0.80136,0 -1.56265,-0.15026 -0.51086,0.30051 -0.51086,0.77131 0,0.52088 0.43073,0.69117 0.43073,0.17029 2.07351,0.25042 2.33394,0.12021 3.21543,0.29049 0.8815,0.17029 1.48251,0.82139 0.60102,0.6511 0.60102,1.62275 0,1.39235 -1.29219,2.35398 -1.28217,0.96163 -4.55771,0.96163 -3.0752,0 -4.14701,-0.67114 -1.07181,-0.66112 -1.07181,-1.68285 0,-1.35228 1.73293,-1.82308 -1.28217,-0.64108 -1.28217,-1.80305 0,-1.45246 2.02342,-2.26383 -1.79303,-0.74125 -1.79303,-2.47418 0,-1.41239 1.23208,-2.29388 1.2421,-0.88149 3.4258,-0.88149 1.38233,0 2.67452,0.44074 0.0901,-0.86146 0.50085,-1.41239 0.42071,-0.56095 1.773,-0.56095 0.44074,0 0.84142,0.0801 z m -5.80983,1.17198 q -0.7713,0 -1.21205,0.42071 -0.43073,0.4107 -0.43073,1.09185 0,1.54261 1.6528,1.54261 0.80136,0 1.25212,-0.45076 0.46078,-0.45076 0.46078,-1.09185 0,-0.60101 -0.43073,-1.05178 -0.43073,-0.46078 -1.29219,-0.46078 z m -1.99337,8.64463 q -0.1803,0 -0.46078,0.2404 -0.27046,0.24041 -0.27046,0.58098 0,0.68116 0.87148,0.85144 0.87147,0.17029 2.04345,0.17029 1.5326,0 2.14363,-0.23039 0.62105,-0.23039 0.62105,-0.74125 0,-0.39066 -0.52088,-0.60102 -0.51086,-0.21035 -2.74464,-0.21035 l -0.60102,0.01 q -0.55093,0 -0.74125,-0.03 -0.21036,-0.0401 -0.34058,-0.0401 z"
       id="text1238"
       style="font-size:20.5147px;font-family:'Franklin Gothic Demi';-inkscape-font-specification:'Franklin Gothic Demi';fill:#c500ee;stroke-width:1.8544;paint-order:markers fill stroke"
       transform="scale(0.99292837,1.007122)"
       aria-label="g" />
    <path
       d="m 137.47102,165.201 h -2.8949 v -10.11711 h 2.73463 v 1.88319 q 0.63107,-2.10356 2.18369,-2.10356 0.22038,0 0.54092,0.0301 v 2.94498 q -0.91154,0 -1.42241,0.28048 -0.50085,0.28047 -0.82139,1.01171 -0.32054,0.72122 -0.32054,1.9533 z"
       id="text1237"
       style="font-size:20.5147px;font-family:'Franklin Gothic Demi';-inkscape-font-specification:'Franklin Gothic Demi';fill:#c500ee;stroke-width:1.8544;paint-order:markers fill stroke"
       transform="scale(0.99292837,1.007122)"
       aria-label="r" />
    <path
       d="m 150.53312,165.201 h -2.89489 q -0.14024,-0.60101 -0.14024,-1.58267 -0.76129,1.08183 -1.52258,1.44244 -0.75127,0.35059 -1.71289,0.35059 -1.42241,0 -2.3039,-0.7713 -0.87147,-0.77131 -0.87147,-2.07351 0,-0.95161 0.51086,-1.75297 0.51086,-0.80135 1.64278,-1.25212 1.13191,-0.46077 4.12698,-0.68115 v -0.58098 q 0,-1.47249 -1.47249,-1.47249 -1.57266,0 -1.75297,1.47249 l -2.75466,-0.26044 q 0.27046,-1.72291 1.63277,-2.44413 1.3623,-0.72122 3.08521,-0.72122 1.03175,0 1.94329,0.2404 0.91154,0.24041 1.42241,0.72122 0.51086,0.48082 0.69117,1.02173 0.1803,0.5309 0.1803,1.86315 v 4.58776 q 0,1.32224 0.19032,1.8932 z m -3.16535,-4.8482 q -3.1353,0.31053 -3.1353,1.89321 0,0.53089 0.33055,0.92155 0.33056,0.38065 0.9416,0.38065 0.79134,0 1.32223,-0.6511 0.54092,-0.66112 0.54092,-1.62275 z"
       id="text1236"
       style="font-size:20.5147px;font-family:'Franklin Gothic Demi';-inkscape-font-specification:'Franklin Gothic Demi';fill:#c500ee;stroke-width:1.8544;paint-order:markers fill stroke"
       transform="scale(0.99292837,1.007122)"
       aria-label="a" />
    <path
       d="m 167.25139,165.201 h -2.98505 v -5.59947 q 0,-1.182 -0.0701,-1.53259 -0.0701,-0.36061 -0.37062,-0.591 -0.29049,-0.24041 -0.81138,-0.24041 -0.49083,0 -1.00169,0.3506 -0.51086,0.35059 -0.51086,2.0134 v 5.59947 h -2.97504 v -5.59947 q 0,-1.21205 -0.11018,-1.56264 -0.11019,-0.36061 -0.42071,-0.58098 -0.30051,-0.22038 -0.77131,-0.22038 -0.7713,0 -1.15195,0.49083 -0.37062,0.48082 -0.37062,1.87317 v 5.59947 h -2.8949 v -10.11711 h 2.80474 v 1.54261 q 0.71121,-1.75296 2.84481,-1.75296 1.93328,0 2.79473,1.75296 0.84143,-1.75296 2.93497,-1.75296 1.00169,0 1.72291,0.41069 0.72122,0.41069 1.03175,1.07181 0.31052,0.66112 0.31052,2.27385 z"
       id="text1235"
       style="font-size:20.5147px;font-family:'Franklin Gothic Demi';-inkscape-font-specification:'Franklin Gothic Demi';fill:#c500ee;stroke-width:1.8544;paint-order:markers fill stroke"
       transform="scale(0.99292837,1.007122)"
       aria-label="m" />
  </g>
</svg>
